<svg xmlns="http://www.w3.org/2000/svg" viewBox="0 0 64 64" width="64" height="64">
  <defs>
    <linearGradient id="g" x1="0" y1="0" x2="1" y2="1">
      <stop offset="0" stop-color="#FFB84D"/>
      <stop offset="0.55" stop-color="#FF6B35"/>
      <stop offset="1" stop-color="#E85A2B"/>
    </linearGradient>
  </defs>
  <rect width="64" height="64" rx="14" fill="#0a1120"/>
  <circle cx="32" cy="32" r="22" fill="url(#g)"/>
  <path fill="#ffffff" d="M24 19h11.2c4.3 0 7.1 2.2 7.1 5.9 0 2.5-1.4 4.2-3.6 4.9 2.7.6 4.4 2.5 4.4 5.4 0 4-3 6.3-7.7 6.3H24V19zm10.3 9.4c1.9 0 3.1-1 3.1-2.6s-1.2-2.5-3.1-2.5h-5.1v5.1h5.1zm.5 9.6c2 0 3.3-1 3.3-2.7s-1.3-2.7-3.4-2.7h-5.5V38h5.6z"/>
</svg>
